<?xml version="1.0" encoding="UTF-8"?>
<svg version="1.1" viewBox="0 0 128 128" xmlns="http://www.w3.org/2000/svg">
 <path d="m2.3151e-12 -7.1054e-15h128v128h-128z" color="#000000" color-rendering="auto" fill="#fff" image-rendering="auto" shape-rendering="auto" solid-color="#000000" style="isolation:auto;mix-blend-mode:normal;paint-order:markers stroke fill"/>
 <path d="m44.568 60.738c-9.559-9.8337-20.365-11.62-29.298-14.514-7.9984-2.5917-12.551-9.8147-9.8817-16.433 2.6385-6.5412 12.007-9.3335 19.807-7.7805 7.9084 1.5745 14.013 6.9032 12.581 14.305-0.52084 2.6912-2.0586 4.6995-3.1344 5.5825-0.91236 0.74882-1.8497 1.3518-2.8798 1.9457 2.1853 1.6108 4.8512 2.7965 6.9718 3.7064 4.5145 1.9372 11.165 4.6696 18.806 9.0714 13.821-7.8562 31.779-18.031 41.704-23.655 9.9255-5.6248 20.084-2.7876 24.291-0.20922l-53.23 31.243 53.23 31.243c-4.2065 2.5784-14.365 5.4156-24.291-0.20922-9.9247-5.6244-27.883-15.799-41.704-23.655-7.6415 4.4017-14.291 7.1342-18.806 9.0714-2.1206 0.90994-4.7864 2.0956-6.9718 3.7064 1.0301 0.59393 1.9674 1.1969 2.8798 1.9457 1.0759 0.88301 2.6136 2.8913 3.1344 5.5825 1.4325 7.4018-4.6724 12.73-12.581 14.305-7.8003 1.553-17.169-1.2393-19.807-7.7805-2.6697-6.6185 1.8833-13.842 9.8817-16.433 8.9329-2.8945 19.739-4.6805 29.298-14.514 1.0681-1.0988 2.1476-2.1864 3.2215-3.2618-1.0738-1.0753-2.1534-2.163-3.2215-3.2618zm-31.343-22.747c1.897 2.3431 5.1501 4.0938 8.8806 4.1171 4.1772 0.02608 6.8879-1.9542 8.0098-4.6054 1.1218-2.6511 0.57846-5.8913-2.3508-8.234-1.9529-1.5619-5.0698-2.4407-8.0099-2.3027-2.9404 0.13798-5.4857 1.3025-7.0087 3.3843-1.885 2.5766-1.4179 5.2977 0.47899 7.6408zm-0.47899 59.659c1.523 2.0818 4.0683 3.2463 7.0087 3.3843 2.9401 0.13797 6.057-0.74079 8.0099-2.3027 2.9292-2.3428 3.4726-5.583 2.3508-8.234-1.1219-2.6512-3.8326-4.6315-8.0098-4.6054-3.7305 0.023291-6.9836 1.774-8.8806 4.1171-1.8969 2.343-2.364 5.0641-0.47899 7.6408z" color="#000000" style="text-indent:0;text-transform:none"/>
</svg>
