<?xml version="1.0" encoding="UTF-8"?>
<svg viewBox="0 0 460.34183 444.82458" xmlns="http://www.w3.org/2000/svg">
 <defs>
  <linearGradient id="a" x1="171.37" x2="181.28" y1="343.67" y2="378.15" gradientTransform="matrix(.99139 -.13094 .13094 .99139 -65.848 49.985)" gradientUnits="userSpaceOnUse">
   <stop stop-color="#d2d2d2" offset="0"/>
   <stop stop-color="#fff" offset="1"/>
  </linearGradient>
 </defs>
 <g transform="translate(-117.8 -304.41)">
  <path d="m133.07 372.04c50.973-19.828 134.54-30.114 134.54-30.114l238.09-31.448 25.595 193.78s13.675 113.15 46.846 167.18c-77.613 32.186-215.03 52.194-215.03 52.194l-193.78 25.595-43.783-331.49s-6.9792-26.445 7.5253-45.709z" fill-opacity=".39216"/>
  <path d="m125.64 364.97c58.473-16.828 137.04-27.114 137.04-27.114l238.09-31.448 25.595 193.78s8.7672 75.993 41.939 130.03c-63.192 76.138-210.13 89.348-210.13 89.348l-193.78 25.595-43.783-331.49s-3.796-31.873 5.0253-48.709z" fill="url(#a)" stroke="#000" stroke-width="4"/>
 </g>
</svg>
